<svg width="1516" height="350" viewBox="0 0 1516 350" fill="none" xmlns="http://www.w3.org/2000/svg">
<path d="M566.6 250H532.8L506.2 196.2H478.2V250H449V108H513.4C528.467 108 540.133 112.067 548.4 120.2C556.667 128.333 560.8 139.067 560.8 152.4C560.8 162 558.6 170.333 554.2 177.4C549.933 184.467 543.733 189.667 535.6 193L566.6 250ZM527 165C530.067 161.933 531.6 157.733 531.6 152.4C531.6 147.067 530 142.8 526.8 139.6C523.733 136.4 519.267 134.8 513.4 134.8H478.2V169.4H513.4C519.4 169.4 523.933 167.933 527 165ZM671.966 236.6C661.832 247.133 648.566 252.4 632.166 252.4C615.766 252.4 602.499 247.133 592.366 236.6C582.232 225.933 577.166 212.933 577.166 197.6C577.166 182.267 582.232 169.333 592.366 158.8C602.499 148.133 615.766 142.8 632.166 142.8C648.566 142.8 661.832 148.133 671.966 158.8C682.099 169.333 687.166 182.267 687.166 197.6C687.166 212.933 682.099 225.933 671.966 236.6ZM612.966 175.8C608.032 181.133 605.566 188.4 605.566 197.6C605.566 206.8 608.032 214.067 612.966 219.4C618.032 224.733 624.432 227.4 632.166 227.4C639.899 227.4 646.232 224.733 651.166 219.4C656.232 214.067 658.766 206.8 658.766 197.6C658.766 188.4 656.232 181.133 651.166 175.8C646.232 170.467 639.899 167.8 632.166 167.8C624.432 167.8 618.032 170.467 612.966 175.8ZM783.417 145.2H809.617V250H783.417V237.2C776.484 247.333 765.417 252.4 750.217 252.4C735.417 252.4 723.684 247.2 715.017 236.8C706.351 226.4 702.017 213.333 702.017 197.6C702.017 181.867 706.351 168.8 715.017 158.4C723.684 148 735.417 142.8 750.217 142.8C765.417 142.8 776.484 147.867 783.417 158V145.2ZM774.817 219C779.617 213.4 782.017 206.267 782.017 197.6C782.017 188.933 779.617 181.8 774.817 176.2C770.151 170.6 763.951 167.8 756.217 167.8C748.484 167.8 742.217 170.6 737.417 176.2C732.751 181.8 730.417 188.933 730.417 197.6C730.417 206.267 732.751 213.4 737.417 219C742.217 224.6 748.484 227.4 756.217 227.4C763.951 227.4 770.151 224.6 774.817 219ZM910.17 156.4V100H938.57V250H912.37V237.2C905.437 247.333 894.37 252.4 879.17 252.4C864.37 252.4 852.637 247.2 843.97 236.8C835.304 226.4 830.97 213.333 830.97 197.6C830.97 181.867 835.304 168.8 843.97 158.4C852.637 148 864.37 142.8 879.17 142.8C886.104 142.8 892.237 144.133 897.57 146.8C903.037 149.333 907.237 152.533 910.17 156.4ZM903.77 219C908.57 213.4 910.97 206.267 910.97 197.6C910.97 188.933 908.57 181.8 903.77 176.2C899.104 170.6 892.904 167.8 885.17 167.8C877.437 167.8 871.17 170.6 866.37 176.2C861.704 181.8 859.37 188.933 859.37 197.6C859.37 206.267 861.704 213.4 866.37 219C871.17 224.6 877.437 227.4 885.17 227.4C892.904 227.4 899.104 224.6 903.77 219ZM1060.52 190.4V250H1032.12V187.8C1032.12 174.067 1026.52 167.2 1015.32 167.2C1008.79 167.2 1003.72 169.2 1000.12 173.2C996.657 177.2 994.923 182.733 994.923 189.8V250H966.523V145.2H992.723V158C998.19 147.867 1008.26 142.8 1022.92 142.8C1036.79 142.8 1046.92 147.733 1053.32 157.6C1062.26 147.733 1073.86 142.8 1088.12 142.8C1100.39 142.8 1109.79 146.6 1116.32 154.2C1122.86 161.8 1126.12 171.933 1126.12 184.6V250H1097.72V187.8C1097.72 174.067 1092.12 167.2 1080.92 167.2C1074.26 167.2 1069.19 169.267 1065.72 173.4C1062.26 177.4 1060.52 183.067 1060.52 190.4ZM1227.89 145.2H1254.09V250H1227.89V237.2C1220.96 247.333 1209.89 252.4 1194.69 252.4C1179.89 252.4 1168.16 247.2 1159.49 236.8C1150.83 226.4 1146.49 213.333 1146.49 197.6C1146.49 181.867 1150.83 168.8 1159.49 158.4C1168.16 148 1179.89 142.8 1194.69 142.8C1209.89 142.8 1220.96 147.867 1227.89 158V145.2ZM1219.29 219C1224.09 213.4 1226.49 206.267 1226.49 197.6C1226.49 188.933 1224.09 181.8 1219.29 176.2C1214.63 170.6 1208.43 167.8 1200.69 167.8C1192.96 167.8 1186.69 170.6 1181.89 176.2C1177.23 181.8 1174.89 188.933 1174.89 197.6C1174.89 206.267 1177.23 213.4 1181.89 219C1186.69 224.6 1192.96 227.4 1200.69 227.4C1208.43 227.4 1214.63 224.6 1219.29 219ZM1310.45 238.8V291.6H1282.05V145.2H1308.25V158C1315.18 147.867 1326.25 142.8 1341.45 142.8C1356.25 142.8 1367.98 148 1376.65 158.4C1385.31 168.8 1389.65 181.867 1389.65 197.6C1389.65 213.333 1385.31 226.4 1376.65 236.8C1367.98 247.2 1356.25 252.4 1341.45 252.4C1334.51 252.4 1328.31 251.133 1322.85 248.6C1317.51 245.933 1313.38 242.667 1310.45 238.8ZM1316.65 176.2C1311.98 181.8 1309.65 188.933 1309.65 197.6C1309.65 206.267 1311.98 213.4 1316.65 219C1321.45 224.6 1327.71 227.4 1335.45 227.4C1343.18 227.4 1349.38 224.6 1354.05 219C1358.85 213.4 1361.25 206.267 1361.25 197.6C1361.25 188.933 1358.85 181.8 1354.05 176.2C1349.38 170.6 1343.18 167.8 1335.45 167.8C1327.71 167.8 1321.45 170.6 1316.65 176.2ZM1508.6 205.8H1432.6C1433.53 213 1436.2 218.533 1440.6 222.4C1445 226.133 1450.8 228 1458 228C1462.53 228 1466.6 227.067 1470.2 225.2C1473.93 223.2 1476.6 220.333 1478.2 216.6H1506.8C1503.73 227.267 1497.67 235.933 1488.6 242.6C1479.67 249.133 1469.2 252.4 1457.2 252.4C1441.73 252.4 1429.07 247.267 1419.2 237C1409.33 226.733 1404.4 213.533 1404.4 197.4C1404.4 181.8 1409.33 168.8 1419.2 158.4C1429.07 148 1441.67 142.8 1457 142.8C1472.33 142.8 1484.8 148 1494.4 158.4C1504.13 168.667 1509 181.667 1509 197.4L1508.6 205.8ZM1456.8 165.6C1450.4 165.6 1445.13 167.4 1441 171C1436.87 174.467 1434.2 179.267 1433 185.4H1480.6C1479.53 179.4 1476.93 174.6 1472.8 171C1468.67 167.4 1463.33 165.6 1456.8 165.6Z" fill="white"/>
<g filter="url(#filter0_i_8819_26286)">
<path d="M1.20381 121.031C3.70514 55.7862 55.7862 3.70514 121.031 1.20381C139.861 0.481904 158.58 0 175 0C191.42 0 210.139 0.481904 228.969 1.20381C294.214 3.70514 346.295 55.7862 348.796 121.031C349.518 139.861 350 158.58 350 175C350 191.42 349.518 210.139 348.796 228.969C346.295 294.214 294.214 346.295 228.969 348.796C210.139 349.518 191.42 350 175 350C158.58 350 139.861 349.518 121.031 348.796C55.7862 346.295 3.70514 294.214 1.20381 228.969C0.481904 210.139 0 191.42 0 175C0 158.58 0.481904 139.861 1.20381 121.031Z" fill="url(#paint0_linear_8819_26286)"/>
</g>
<path d="M7.19941 121.26C9.58062 59.1492 59.1493 9.58062 121.26 7.19941C140.05 6.47907 158.686 6 175 6C191.314 6 209.95 6.47907 228.74 7.19941C290.851 9.58062 340.419 59.1493 342.801 121.26C343.521 140.05 344 158.686 344 175C344 191.314 343.521 209.95 342.801 228.74C340.419 290.851 290.851 340.419 228.74 342.801C209.95 343.521 191.314 344 175 344C158.686 344 140.05 343.521 121.261 342.801C59.1493 340.419 9.58062 290.851 7.19941 228.74C6.47907 209.95 6 191.314 6 175C6 158.686 6.47907 140.05 7.19941 121.26Z" stroke="white" stroke-width="12"/>
<path d="M12 210H194C202.837 210 210 217.163 210 226V258C210 266.837 202.837 274 194 274H12V210Z" fill="url(#paint1_linear_8819_26286)"/>
<path d="M14 204H12V206V278V280H14H194C206.15 280 216 270.15 216 258V226C216 213.85 206.15 204 194 204H14Z" stroke="url(#paint2_linear_8819_26286)" stroke-opacity="0.5" stroke-width="4"/>
<path d="M10 114H94C102.837 114 110 121.163 110 130V162C110 170.837 102.837 178 94 178H10V114Z" fill="url(#paint3_linear_8819_26286)"/>
<path d="M14 108H12V110V182V184H14H94C106.15 184 116 174.15 116 162V130C116 117.85 106.15 108 94 108H14Z" stroke="url(#paint4_linear_8819_26286)" stroke-opacity="0.5" stroke-width="4"/>
<g clip-path="url(#clip0_8819_26286)">
<path d="M251.334 134.736L251.794 135.624L251.334 134.736L232.602 144.422C232.602 144.422 232.602 144.422 232.602 144.422C231.667 144.905 230.905 145.667 230.422 146.602C230.422 146.602 230.422 146.602 230.422 146.602L220.736 165.334L221.624 165.794L220.736 165.334C219.588 167.555 216.412 167.555 215.264 165.334L214.39 165.786L215.264 165.334L205.578 146.602C205.578 146.602 205.578 146.602 205.578 146.602C205.095 145.667 204.333 144.905 203.398 144.422L184.666 134.736L184.206 135.624L184.666 134.736C182.445 133.588 182.445 130.412 184.666 129.264L203.398 119.578L203.398 119.578C204.333 119.095 205.095 118.333 205.578 117.398L205.578 117.398L215.264 98.6656C216.412 96.4448 219.588 96.4448 220.736 98.6656L221.624 98.2063L220.736 98.6656L230.422 117.398C230.905 118.333 231.667 119.095 232.602 119.578C232.602 119.578 232.602 119.578 232.602 119.578L251.334 129.264L251.786 128.39L251.334 129.264C253.555 130.412 253.555 133.588 251.334 134.736Z" fill="url(#paint5_linear_8819_26286)" stroke="white" stroke-width="2"/>
</g>
<g clip-path="url(#clip1_8819_26286)">
<path d="M276.675 87.0553L276.675 87.0553C277.442 87.4518 277.442 88.5482 276.675 88.9447L276.675 88.9447L268.349 93.2494C267.878 93.4932 267.493 93.8776 267.249 94.3494L262.945 102.675L262.945 102.675C262.548 103.442 261.452 103.442 261.055 102.675L261.055 102.675L256.751 94.3494C256.507 93.8776 256.122 93.4933 255.651 93.2494L247.325 88.9447C246.558 88.5482 246.558 87.4517 247.325 87.0553L255.651 82.7505L255.651 82.7505C256.122 82.5066 256.507 82.1224 256.75 81.6508L256.751 81.6508L261.055 73.325C261.452 72.5583 262.548 72.5583 262.945 73.325L267.249 81.6507C267.493 82.1224 267.878 82.5067 268.349 82.7506L276.675 87.0553Z" fill="url(#paint6_linear_8819_26286)" stroke="white" stroke-width="1.5"/>
</g>
<g clip-path="url(#clip2_8819_26286)">
<path d="M185.035 88.764L185.035 88.764L178.791 91.9926C178.448 92.1695 178.17 92.4484 177.993 92.7908L174.764 99.0349L174.764 99.0349C174.443 99.655 173.557 99.655 173.236 99.0349L172.792 99.2645L173.236 99.0349L170.007 92.7907C170.007 92.7907 170.007 92.7907 170.007 92.7907C169.83 92.4484 169.552 92.1695 169.209 91.9926C169.209 91.9926 169.209 91.9926 169.209 91.9926L162.965 88.764C162.345 88.4434 162.345 87.5566 162.965 87.236L169.209 84.0074L169.209 84.0074C169.552 83.8304 169.83 83.5516 170.007 83.2094L170.007 83.2094L173.236 76.9651C173.557 76.345 174.443 76.345 174.764 76.9651L177.993 83.2093C177.993 83.2094 177.993 83.2094 177.993 83.2094C178.17 83.5516 178.448 83.8304 178.791 84.0074C178.791 84.0074 178.791 84.0074 178.791 84.0074L185.035 87.236L185.265 86.7918L185.035 87.236C185.655 87.5566 185.655 88.4434 185.035 88.764Z" fill="url(#paint7_linear_8819_26286)" stroke="white"/>
</g>
<defs>
<filter id="filter0_i_8819_26286" x="0" y="0" width="350" height="350" filterUnits="userSpaceOnUse" color-interpolation-filters="sRGB">
<feFlood flood-opacity="0" result="BackgroundImageFix"/>
<feBlend mode="normal" in="SourceGraphic" in2="BackgroundImageFix" result="shape"/>
<feColorMatrix in="SourceAlpha" type="matrix" values="0 0 0 0 0 0 0 0 0 0 0 0 0 0 0 0 0 0 127 0" result="hardAlpha"/>
<feOffset/>
<feGaussianBlur stdDeviation="24"/>
<feComposite in2="hardAlpha" operator="arithmetic" k2="-1" k3="1"/>
<feColorMatrix type="matrix" values="0 0 0 0 0 0 0 0 0 0 0 0 0 0 0 0 0 0 0.4 0"/>
<feBlend mode="normal" in2="shape" result="effect1_innerShadow_8819_26286"/>
</filter>
<linearGradient id="paint0_linear_8819_26286" x1="175" y1="0" x2="175" y2="350" gradientUnits="userSpaceOnUse">
<stop stop-color="#00B5E9"/>
<stop offset="1" stop-color="#2D70FD"/>
</linearGradient>
<linearGradient id="paint1_linear_8819_26286" x1="210" y1="242" x2="12" y2="242" gradientUnits="userSpaceOnUse">
<stop stop-color="white"/>
<stop offset="1" stop-color="white" stop-opacity="0.25"/>
</linearGradient>
<linearGradient id="paint2_linear_8819_26286" x1="216.116" y1="240.071" x2="13.996" y2="241.378" gradientUnits="userSpaceOnUse">
<stop stop-color="white"/>
<stop offset="1" stop-color="white" stop-opacity="0"/>
</linearGradient>
<linearGradient id="paint3_linear_8819_26286" x1="110" y1="146" x2="10" y2="146" gradientUnits="userSpaceOnUse">
<stop stop-color="white"/>
<stop offset="1" stop-color="white" stop-opacity="0.25"/>
</linearGradient>
<linearGradient id="paint4_linear_8819_26286" x1="115.058" y1="144.071" x2="13.9948" y2="144.398" gradientUnits="userSpaceOnUse">
<stop stop-color="white"/>
<stop offset="1" stop-color="white" stop-opacity="0"/>
</linearGradient>
<linearGradient id="paint5_linear_8819_26286" x1="254" y1="96" x2="182" y2="168" gradientUnits="userSpaceOnUse">
<stop stop-color="white"/>
<stop offset="1" stop-color="white" stop-opacity="0.65"/>
</linearGradient>
<linearGradient id="paint6_linear_8819_26286" x1="278" y1="72" x2="246" y2="104" gradientUnits="userSpaceOnUse">
<stop stop-color="white"/>
<stop offset="1" stop-color="white" stop-opacity="0.65"/>
</linearGradient>
<linearGradient id="paint7_linear_8819_26286" x1="186" y1="76" x2="162" y2="100" gradientUnits="userSpaceOnUse">
<stop stop-color="white"/>
<stop offset="1" stop-color="white" stop-opacity="0.65"/>
</linearGradient>
<clipPath id="clip0_8819_26286">
<rect width="72" height="72" fill="white" transform="translate(182 96)"/>
</clipPath>
<clipPath id="clip1_8819_26286">
<rect width="32" height="32" fill="white" transform="translate(246 72)"/>
</clipPath>
<clipPath id="clip2_8819_26286">
<rect width="24" height="24" fill="white" transform="translate(162 76)"/>
</clipPath>
</defs>
</svg>
